HIERARCHY
ROOT newVegas:Hips
{
	OFFSET 0.000000 96.479958 0.000000
	CHANNELS 6 Xposition Yposition Zposition Xrotation Yrotation Zrotation
	JOINT newVegas:Pelvis
	{
		OFFSET 0.000000 0.000000 0.000000
		CHANNELS 3 Xrotation Yrotation Zrotation
		JOINT newVegas:LeftUpLeg
		{
			OFFSET 18.735201 -5.666702 -4.541200
			CHANNELS 3 Xrotation Yrotation Zrotation
			JOINT newVegas:LeftLeg
			{
				OFFSET -0.021200 -31.938179 0.493100
				CHANNELS 3 Xrotation Yrotation Zrotation
				JOINT newVegas:LeftFoot
				{
					OFFSET 0.021200 -31.938179 -4.336299
					CHANNELS 3 Xrotation Yrotation Zrotation
					JOINT newVegas:LeftToeBase
					{
						OFFSET 0.943001 -26.722000 15.023500
						CHANNELS 3 Xrotation Yrotation Zrotation
						End Site
						{
							OFFSET 0.000000 30.670183 0.000000
						}
					}
				}
				JOINT newVegas:Left_PantLeg
				{
					OFFSET 0.663870 -9.044666 -1.108900
					CHANNELS 3 Xrotation Yrotation Zrotation
					End Site
					{
						OFFSET 1.415995 20.635357 0.000000
					}
				}
			}
		}
		JOINT newVegas:RightUpLeg
		{
			OFFSET -18.735201 -5.666702 -4.541200
			CHANNELS 3 Xrotation Yrotation Zrotation
			JOINT newVegas:RightLeg
			{
				OFFSET 0.018946 -31.938133 0.493100
				CHANNELS 3 Xrotation Yrotation Zrotation
				JOINT newVegas:RightFoot
				{
					OFFSET -0.018946 -31.938126 -4.336299
					CHANNELS 3 Xrotation Yrotation Zrotation
					JOINT newVegas:RightToeBase
					{
						OFFSET -0.943001 -26.722004 15.023500
						CHANNELS 3 Xrotation Yrotation Zrotation
						End Site
						{
							OFFSET 0.000000 30.670187 0.000000
						}
					}
				}
				JOINT newVegas:Right_PantLeg
				{
					OFFSET -0.661674 -9.044716 -1.108900
					CHANNELS 3 Xrotation Yrotation Zrotation
					End Site
					{
						OFFSET -1.415958 20.635269 0.000000
					}
				}
			}
		}
	}
	JOINT newVegas:Spine
	{
		OFFSET 0.000000 10.199997 -0.299500
		CHANNELS 3 Xrotation Yrotation Zrotation
		JOINT newVegas:Spine1
		{
			OFFSET 0.000000 11.900002 -1.516600
			CHANNELS 3 Xrotation Yrotation Zrotation
			JOINT newVegas:Spine2
			{
				OFFSET 0.000000 13.600006 -2.842500
				CHANNELS 3 Xrotation Yrotation Zrotation
				JOINT newVegas:Neck
				{
					OFFSET 0.000000 9.624100 -2.890100
					CHANNELS 3 Xrotation Yrotation Zrotation
					JOINT newVegas:Head
					{
						OFFSET 0.000000 14.068802 -1.351900
						CHANNELS 3 Xrotation Yrotation Zrotation
						JOINT newVegas:Hair_Back
						{
							OFFSET 0.000000 3.231903 -17.524799
							CHANNELS 3 Xrotation Yrotation Zrotation
							End Site
							{
								OFFSET 0.000000 19.849884 0.000000
							}
						}
						JOINT newVegas:Hair_Front
						{
							OFFSET 0.000000 31.260406 4.573800
							CHANNELS 3 Xrotation Yrotation Zrotation
							JOINT newVegas:Hair_Front1
							{
								OFFSET 0.000000 2.284103 11.993300
								CHANNELS 3 Xrotation Yrotation Zrotation
								JOINT newVegas:Hair_Front2
								{
									OFFSET 0.000000 2.284103 11.993300
									CHANNELS 3 Xrotation Yrotation Zrotation
									End Site
									{
										OFFSET 0.000000 12.208862 0.000000
									}
								}
							}
						}
						JOINT newVegas:Jowel
						{
							OFFSET 0.000000 -7.458206 6.864100
							CHANNELS 3 Xrotation Yrotation Zrotation
							End Site
							{
								OFFSET 0.000000 19.849884 0.000000
							}
						}
					}
				}
				JOINT newVegas:LeftShoulder
				{
					OFFSET 15.263000 10.923401 -0.547700
					CHANNELS 3 Xrotation Yrotation Zrotation
					JOINT newVegas:LeftArm
					{
						OFFSET 25.438599 -2.830597 -13.032500
						CHANNELS 3 Xrotation Yrotation Zrotation
						JOINT newVegas:LeftForeArm
						{
							OFFSET 29.960503 0.000000 0.000000
							CHANNELS 3 Xrotation Yrotation Zrotation
							JOINT newVegas:LeftHand
							{
								OFFSET 27.849251 0.000000 0.000000
								CHANNELS 3 Xrotation Yrotation Zrotation
								JOINT newVegas:LeftHandThumb1
								{
									OFFSET 4.487587 -3.305161 6.305391
									CHANNELS 3 Xrotation Yrotation Zrotation
									JOINT newVegas:LeftHandThumb2
									{
										OFFSET 5.480453 -3.164139 3.164143
										CHANNELS 3 Xrotation Yrotation Zrotation
										JOINT newVegas:LeftHandThumb3
										{
											OFFSET 5.159721 -2.978973 2.978967
											CHANNELS 3 Xrotation Yrotation Zrotation
											End Site
											{
												OFFSET 2.494507 5.926697 1.738678
											}
										}
									}
								}
								JOINT newVegas:LeftHandIndex1
								{
									OFFSET 18.578728 -0.527832 5.208049
									CHANNELS 3 Xrotation Yrotation Zrotation
									JOINT newVegas:LeftHandIndex2
									{
										OFFSET 3.192009 0.000000 0.000000
										CHANNELS 3 Xrotation Yrotation Zrotation
										JOINT newVegas:LeftHandIndex3
										{
											OFFSET 3.835129 0.000000 0.000000
											CHANNELS 3 Xrotation Yrotation Zrotation
											End Site
											{
												OFFSET -0.034599 3.816971 0.371180
											}
										}
									}
								}
								JOINT newVegas:LeftHandMiddle1
								{
									OFFSET 18.476105 0.000000 0.000000
									CHANNELS 3 Xrotation Yrotation Zrotation
									JOINT newVegas:LeftHandMiddle2
									{
										OFFSET 3.324875 0.000000 0.000000
										CHANNELS 3 Xrotation Yrotation Zrotation
										JOINT newVegas:LeftHandMiddle3
										{
											OFFSET 4.596550 0.000000 0.000000
											CHANNELS 3 Xrotation Yrotation Zrotation
											End Site
											{
												OFFSET 0.057701 4.578827 0.399218
											}
										}
									}
								}
								JOINT newVegas:LeftHandRing1
								{
									OFFSET 17.732719 0.121887 -4.201567
									CHANNELS 3 Xrotation Yrotation Zrotation
									JOINT newVegas:LeftHandRing2
									{
										OFFSET 2.733170 0.000000 0.000000
										CHANNELS 3 Xrotation Yrotation Zrotation
										JOINT newVegas:LeftHandRing3
										{
											OFFSET 3.178268 0.000000 0.000000
											CHANNELS 3 Xrotation Yrotation Zrotation
											End Site
											{
												OFFSET 0.119102 3.170624 0.185394
											}
										}
									}
								}
								JOINT newVegas:LeftHandPinky1
								{
									OFFSET 15.989624 -0.606689 -7.535461
									CHANNELS 3 Xrotation Yrotation Zrotation
									JOINT newVegas:LeftHandPinky2
									{
										OFFSET 2.538986 0.000000 0.000000
										CHANNELS 3 Xrotation Yrotation Zrotation
										JOINT newVegas:LeftHandPinky3
										{
											OFFSET 2.593102 0.000000 0.000000
											CHANNELS 3 Xrotation Yrotation Zrotation
											End Site
											{
												OFFSET -0.150902 2.584198 0.152708
											}
										}
									}
								}
							}
							JOINT newVegas:Left_Sleeve
							{
								OFFSET 0.267448 -0.649796 0.577675
								CHANNELS 3 Xrotation Yrotation Zrotation
								End Site
								{
									OFFSET 0.000000 15.991241 0.000000
								}
							}
							JOINT newVegas:Left_CapeC
							{
								OFFSET 15.715958 -8.608795 -6.935905
								CHANNELS 3 Xrotation Yrotation Zrotation
								JOINT newVegas:Left_CapeC1
								{
									OFFSET 0.000000 -8.688499 0.000000
									CHANNELS 3 Xrotation Yrotation Zrotation
									End Site
									{
										OFFSET 0.000000 8.688499 0.000000
									}
								}
							}
						}
						JOINT newVegas:Left_CapeB
						{
							OFFSET 26.118385 -8.608795 -7.079235
							CHANNELS 3 Xrotation Yrotation Zrotation
							JOINT newVegas:Left_CapeB1
							{
								OFFSET 0.000000 -8.688499 0.000000
								CHANNELS 3 Xrotation Yrotation Zrotation
								End Site
								{
									OFFSET 0.000000 8.688499 0.000000
								}
							}
						}
						JOINT newVegas:Left_CapeA
						{
							OFFSET 5.115639 -8.608795 -10.395809
							CHANNELS 3 Xrotation Yrotation Zrotation
							JOINT newVegas:Left_CapeA1
							{
								OFFSET 0.000000 -8.688499 0.000000
								CHANNELS 3 Xrotation Yrotation Zrotation
								End Site
								{
									OFFSET 0.000000 8.688499 0.000000
								}
							}
						}
					}
				}
				JOINT newVegas:RightShoulder
				{
					OFFSET -15.263000 10.923401 -0.547700
					CHANNELS 3 Xrotation Yrotation Zrotation
					JOINT newVegas:RightArm
					{
						OFFSET -25.438599 -2.830597 -13.032500
						CHANNELS 3 Xrotation Yrotation Zrotation
						JOINT newVegas:RightForeArm
						{
							OFFSET -29.960503 0.000000 0.000000
							CHANNELS 3 Xrotation Yrotation Zrotation
							JOINT newVegas:RightHand
							{
								OFFSET -27.849251 0.000000 0.000000
								CHANNELS 3 Xrotation Yrotation Zrotation
								JOINT newVegas:RightHandThumb1
								{
									OFFSET -4.487587 -3.305161 6.305391
									CHANNELS 3 Xrotation Yrotation Zrotation
									JOINT newVegas:RightHandThumb2
									{
										OFFSET -5.480453 -3.164139 3.164143
										CHANNELS 3 Xrotation Yrotation Zrotation
										JOINT newVegas:RightHandThumb3
										{
											OFFSET -5.159721 -2.978973 2.978967
											CHANNELS 3 Xrotation Yrotation Zrotation
											End Site
											{
												OFFSET -2.494507 5.926697 1.738678
											}
										}
									}
								}
								JOINT newVegas:RightHandIndex1
								{
									OFFSET -18.578728 -0.527832 5.208049
									CHANNELS 3 Xrotation Yrotation Zrotation
									JOINT newVegas:RightHandIndex2
									{
										OFFSET -3.192009 0.000000 0.000000
										CHANNELS 3 Xrotation Yrotation Zrotation
										JOINT newVegas:RightHandIndex3
										{
											OFFSET -3.835129 0.000000 0.000000
											CHANNELS 3 Xrotation Yrotation Zrotation
											End Site
											{
												OFFSET 0.034599 3.816971 0.371180
											}
										}
									}
								}
								JOINT newVegas:RightHandMiddle1
								{
									OFFSET -18.476105 0.000000 0.000000
									CHANNELS 3 Xrotation Yrotation Zrotation
									JOINT newVegas:RightHandMiddle2
									{
										OFFSET -3.324875 0.000000 0.000000
										CHANNELS 3 Xrotation Yrotation Zrotation
										JOINT newVegas:RightHandMiddle3
										{
											OFFSET -4.596550 0.000000 0.000000
											CHANNELS 3 Xrotation Yrotation Zrotation
											End Site
											{
												OFFSET -0.057701 4.578827 0.399218
											}
										}
									}
								}
								JOINT newVegas:RightHandRing1
								{
									OFFSET -17.732719 0.121887 -4.201567
									CHANNELS 3 Xrotation Yrotation Zrotation
									JOINT newVegas:RightHandRing2
									{
										OFFSET -2.733170 0.000000 0.000000
										CHANNELS 3 Xrotation Yrotation Zrotation
										JOINT newVegas:RightHandRing3
										{
											OFFSET -3.178268 0.000000 0.000000
											CHANNELS 3 Xrotation Yrotation Zrotation
											End Site
											{
												OFFSET -0.119102 3.170624 0.185394
											}
										}
									}
								}
								JOINT newVegas:RightHandPinky1
								{
									OFFSET -15.989624 -0.606689 -7.535461
									CHANNELS 3 Xrotation Yrotation Zrotation
									JOINT newVegas:RightHandPinky2
									{
										OFFSET -2.538986 0.000000 0.000000
										CHANNELS 3 Xrotation Yrotation Zrotation
										JOINT newVegas:RightHandPinky3
										{
											OFFSET -2.593102 0.000000 0.000000
											CHANNELS 3 Xrotation Yrotation Zrotation
											End Site
											{
												OFFSET 0.150902 2.584198 0.152708
											}
										}
									}
								}
							}
							JOINT newVegas:Right_CapeC
							{
								OFFSET -15.715958 -8.608795 -6.935905
								CHANNELS 3 Xrotation Yrotation Zrotation
								JOINT newVegas:Right_CapeC1
								{
									OFFSET 0.000000 -8.688499 0.000000
									CHANNELS 3 Xrotation Yrotation Zrotation
									End Site
									{
										OFFSET 0.000000 8.688499 0.000000
									}
								}
							}
							JOINT newVegas:Right_Sleeve
							{
								OFFSET -0.267448 -0.649994 0.577675
								CHANNELS 3 Xrotation Yrotation Zrotation
								End Site
								{
									OFFSET 0.000000 15.991302 0.000000
								}
							}
						}
						JOINT newVegas:Right_CapeA
						{
							OFFSET -5.115540 -8.608795 -10.395824
							CHANNELS 3 Xrotation Yrotation Zrotation
							JOINT newVegas:Right_CapeA1
							{
								OFFSET 0.000000 -8.688499 0.000000
								CHANNELS 3 Xrotation Yrotation Zrotation
								End Site
								{
									OFFSET 0.000000 8.688499 0.000000
								}
							}
						}
						JOINT newVegas:Right_CapeB
						{
							OFFSET -26.118187 -8.608795 -7.079266
							CHANNELS 3 Xrotation Yrotation Zrotation
							JOINT newVegas:Right_CapeB1
							{
								OFFSET 0.000000 -8.688499 0.000000
								CHANNELS 3 Xrotation Yrotation Zrotation
								End Site
								{
									OFFSET 0.000000 8.688499 0.000000
								}
							}
						}
					}
				}
				JOINT newVegas:Left_Collar
				{
					OFFSET 18.625099 8.655502 8.828100
					CHANNELS 3 Xrotation Yrotation Zrotation
					JOINT newVegas:Left_Collar1
					{
						OFFSET 14.783401 10.540405 -1.259500
						CHANNELS 3 Xrotation Yrotation Zrotation
						End Site
						{
							OFFSET 0.000000 18.199875 0.000000
						}
					}
				}
				JOINT newVegas:Collar_Back
				{
					OFFSET 0.000000 15.630707 -20.132601
					CHANNELS 3 Xrotation Yrotation Zrotation
					End Site
					{
						OFFSET 0.000000 22.523010 0.000000
					}
				}
				JOINT newVegas:Left_Peck
				{
					OFFSET 17.239599 -5.132599 25.482599
					CHANNELS 3 Xrotation Yrotation Zrotation
					End Site
					{
						OFFSET 0.000000 22.523010 0.000000
					}
				}
				JOINT newVegas:Right_Peck
				{
					OFFSET -17.239599 -5.132202 25.482599
					CHANNELS 3 Xrotation Yrotation Zrotation
					End Site
					{
						OFFSET 0.000000 22.523010 0.000000
					}
				}
				JOINT newVegas:Right_Collar
				{
					OFFSET -18.625099 8.655792 8.828100
					CHANNELS 3 Xrotation Yrotation Zrotation
					JOINT newVegas:Right_Collar1
					{
						OFFSET -14.783401 10.539993 -1.259500
						CHANNELS 3 Xrotation Yrotation Zrotation
						End Site
						{
							OFFSET 0.000000 18.199631 0.000000
						}
					}
				}
			}
		}
		JOINT newVegas:Belly
		{
			OFFSET 0.000000 -6.540398 9.014299
			CHANNELS 3 Xrotation Yrotation Zrotation
			End Site
			{
				OFFSET 0.000000 11.566666 0.000000
			}
		}
	}
	JOINT newVegas:ElvisFacialAnim_Joint
	{
		OFFSET 1.000000 -95.330101 -8.825800
		CHANNELS 3 Xrotation Yrotation Zrotation
		End Site
		{
			OFFSET 0.000000 35.315800 0.000000
		}
	}
}
MOTION
Frames: 4
Frame Time: 0.016667
0.421589 111.917885 2.971680 -89.648275 0.339598 0.802207 0.000000 0.000000 0.000000 -11.718440 14.652556 23.035865 13.259341 6.355157 0.135431 29.019524 29.282951 -33.793000 0.000001 -0.000002 -0.000000 0.000000 -0.000001 -0.000002 -14.201898 -13.648350 -17.299587 15.221012 -6.797415 -7.432232 38.740129 -29.043102 33.820645 0.000001 0.000001 -0.000001 -0.000000 0.000003 -0.000001 1.065097 -1.161529 0.872956 -0.317547 -2.434542 0.230484 -0.303419 -2.418347 0.331942 -3.650655 0.013985 -0.656594 -3.650663 0.013983 -0.656596 -0.000001 -0.000000 -0.000000 -3.650607 0.013985 -0.656597 -3.650655 0.013986 -0.656596 -0.000000 -0.000000 0.000000 -0.000001 -0.000000 0.000000 0.422258 -0.102939 -3.997469 35.266551 -28.376656 -54.536953 0.000170 -80.459594 0.000165 -13.956470 -3.099368 -10.083749 6.590536 -4.958667 16.122655 7.178842 21.567330 2.147330 0.000000 -0.000000 -0.000003 0.659515 4.932351 -26.024460 0.169789 1.401612 -13.813538 -0.000000 -0.000000 -0.000001 1.376925 6.461943 -24.994169 0.169876 1.401968 -13.817113 0.000000 0.000001 -0.000001 2.098725 8.644281 -21.209672 0.169790 1.401610 -13.813536 -0.000001 -0.000002 -0.000001 2.123425 10.735865 -14.817564 0.167495 1.392238 -13.719347 0.000003 -0.000001 -0.000003 -0.000003 0.000003 -0.000001 -0.000003 0.000003 -0.000001 -0.000003 0.000004 0.000000 0.000002 0.000000 -0.000000 0.000002 -0.000001 0.000000 0.000002 0.000000 -0.000000 0.000001 0.000001 -0.000001 0.672261 1.791888 13.905687 39.524416 30.882062 33.636349 0.001785 101.353355 -0.001767 -34.912007 -9.308809 11.148411 -13.115368 7.814912 -0.093423 7.918237 -27.751672 -3.100781 0.000001 -0.000003 -0.000003 2.082859 12.897789 37.347468 0.497041 -2.095306 26.687142 0.000000 0.000000 -0.000002 -4.321321 1.650212 38.533499 0.529959 -2.159504 27.573969 -0.000001 0.000000 0.000001 -1.394392 -1.262387 31.742013 0.254169 -1.518991 18.997017 -0.000001 -0.000001 0.000001 0.189718 -3.422252 14.147209 0.162217 -1.219714 15.150966 -0.000001 0.000005 -0.000002 0.000001 0.000001 0.000003 0.000001 0.000002 -0.000000 0.000001 0.000001 0.000005 -0.000002 0.000000 -0.000002 -0.000002 0.000001 -0.000001 -0.000002 0.000000 -0.000002 -0.000002 0.000001 -0.000002 0.000000 -0.000000 -0.000000 0.000000 -0.000000 -0.000000 0.000000 -0.000000 -0.000000 0.000000 -0.000000 -0.000000 0.000000 -0.000000 -0.000000 0.000000 -0.000000 -0.000000 0.000000 -0.000000 -0.000000 -0.000000 0.000000 0.000000 0.000000 0.000000 0.000000 
0.419241 111.916237 2.966599 -89.647619 0.339011 0.803798 -0.000000 -0.000000 0.000000 -11.722474 14.621605 23.053908 13.361022 6.369222 0.116248 29.022597 29.281267 -33.761229 -0.000000 -0.000001 0.000000 -0.000001 -0.000002 0.000001 -14.203506 -13.652548 -17.288775 15.215869 -6.805437 -7.448110 38.712887 -29.050116 33.811991 0.000002 -0.000002 0.000000 0.000001 0.000002 -0.000002 1.065375 -1.294433 0.871702 -0.267800 -2.803663 0.269862 -0.275045 -2.540292 0.378854 -3.710821 0.011475 -0.666554 -3.710859 0.011474 -0.666551 0.000000 0.000000 -0.000000 -3.710739 0.011484 -0.666556 -3.710878 0.011471 -0.666552 0.000000 -0.000000 -0.000000 0.000000 0.000000 -0.000000 0.286866 1.338427 -4.208839 35.597402 -28.973939 -53.870679 -0.000207 -80.449882 -0.000196 -14.006683 -2.990129 -10.115685 6.590540 -4.958667 16.122662 7.178838 21.567330 2.147325 0.000003 0.000004 -0.000001 0.659516 4.932350 -26.024455 0.169791 1.401612 -13.813543 0.000000 0.000003 0.000003 1.376925 6.461940 -24.994172 0.169875 1.401971 -13.817112 -0.000001 0.000001 0.000001 2.098725 8.644281 -21.209674 0.169788 1.401609 -13.813536 0.000002 0.000001 0.000001 2.123426 10.735861 -14.817564 0.167497 1.392245 -13.719348 0.000003 -0.000002 -0.000000 0.000001 -0.000007 -0.000001 0.000001 -0.000007 -0.000001 -0.000000 -0.000007 0.000000 0.000001 -0.000003 -0.000002 0.000001 -0.000003 -0.000002 0.000001 -0.000003 -0.000002 -0.000000 -0.000002 -0.000002 0.632469 1.910001 13.900113 39.216802 31.338465 32.961639 0.000842 101.513960 -0.000829 -32.241556 -5.778565 11.438756 -12.649681 7.487815 0.310907 7.918229 -27.751672 -3.100782 -0.000000 -0.000003 -0.000001 1.826903 12.388905 38.175666 0.531853 -2.163119 27.624073 -0.000000 -0.000000 -0.000002 -4.275621 1.292276 39.774616 0.580789 -2.254081 28.893746 -0.000000 0.000001 -0.000006 -1.400934 -1.500333 33.624318 0.307059 -1.664653 20.900884 -0.000003 -0.000001 -0.000002 0.245551 -3.624121 16.721693 0.221494 -1.420583 17.723400 0.000003 0.000003 0.000000 0.000001 0.000000 0.000003 0.000000 0.000000 -0.000000 0.000001 0.000000 0.000003 -0.000001 -0.000001 -0.000002 -0.000001 0.000000 -0.000002 -0.000001 -0.000001 -0.000002 -0.000001 -0.000000 -0.000002 0.000000 -0.000000 -0.000000 0.000000 -0.000000 -0.000000 0.000000 -0.000000 -0.000000 0.000000 -0.000000 -0.000000 0.000000 -0.000000 -0.000000 0.000000 -0.000000 -0.000000 0.000000 -0.000000 -0.000000 -0.000000 -0.000000 -0.000000 -0.000000 -0.000000 0.000000 
0.420051 111.920670 2.963715 -89.646800 0.338218 0.803922 0.000000 0.000000 0.000000 -11.708305 14.622913 23.053323 13.354972 6.381757 0.092134 29.087498 29.273754 -33.751076 -0.000000 -0.000000 0.000000 -0.000001 0.000000 0.000002 -14.215349 -13.651041 -17.258348 15.298382 -6.795706 -7.487467 38.578186 -29.102511 33.799198 0.000001 -0.000001 0.000000 -0.000000 -0.000000 0.000001 1.071518 -1.479005 0.873536 -0.122002 -3.167864 0.318245 -0.192742 -2.885991 0.467763 -3.735803 0.005652 -0.673395 -3.735780 0.005653 -0.673396 0.000001 0.000000 -0.000000 -3.735763 0.005653 -0.673397 -3.735790 0.005651 -0.673396 -0.000001 0.000000 0.000000 0.000001 0.000000 -0.000000 0.143295 2.780179 -4.408304 35.798063 -29.342127 -53.527998 0.000033 -80.441146 0.000036 -13.903218 -3.035550 -10.126507 6.590537 -4.958668 16.122655 7.178840 21.567326 2.147326 0.000004 -0.000002 0.000003 0.659517 4.932350 -26.024453 0.169789 1.401609 -13.813537 0.000001 -0.000001 -0.000000 1.376924 6.461938 -24.994177 0.169878 1.401970 -13.817112 0.000001 0.000001 -0.000000 2.098724 8.644284 -21.209675 0.169789 1.401606 -13.813534 -0.000001 -0.000002 -0.000001 2.123424 10.735864 -14.817566 0.167498 1.392241 -13.719347 -0.000001 -0.000002 -0.000002 0.000001 -0.000003 -0.000003 0.000001 -0.000003 -0.000003 -0.000000 -0.000002 -0.000002 -0.000002 -0.000003 -0.000000 -0.000002 -0.000003 0.000000 -0.000002 -0.000003 -0.000000 -0.000003 -0.000002 -0.000001 0.595529 2.019711 13.895002 37.989413 32.092296 32.256347 0.004415 101.960156 -0.004363 -30.034268 -3.162344 11.679209 -12.147810 7.137441 0.751203 7.918233 -27.751668 -3.100786 0.000000 -0.000002 -0.000001 1.567013 11.835569 39.062183 0.570623 -2.235587 28.634248 -0.000001 -0.000000 0.000001 -4.213792 0.910822 41.113460 0.638002 -2.354701 30.316754 0.000001 -0.000001 0.000002 -1.397918 -1.756052 35.653977 0.369470 -1.819641 22.953747 -0.000001 0.000001 -0.000002 0.315879 -3.838722 19.498124 0.295437 -1.633912 20.497205 -0.000000 0.000002 -0.000001 0.000000 0.000000 0.000002 -0.000002 -0.000000 0.000002 0.000001 0.000000 0.000001 -0.000000 0.000001 0.000000 -0.000000 0.000000 0.000000 -0.000000 0.000001 0.000000 -0.000000 -0.000000 0.000000 0.000000 0.000000 -0.000000 0.000000 0.000000 -0.000000 0.000000 0.000000 -0.000000 0.000000 0.000000 -0.000000 0.000000 0.000000 -0.000000 0.000000 0.000000 -0.000000 0.000000 0.000000 -0.000000 0.000000 0.000000 0.000000 0.000000 0.000000 0.000000 
0.415044 111.921814 2.960220 -89.641909 0.320379 0.806497 0.000000 0.000000 -0.000000 -11.683564 14.625605 23.057694 13.346239 6.422316 0.064007 29.145230 29.266022 -33.741906 -0.000000 -0.000000 -0.000000 -0.000001 0.000001 0.000004 -14.243609 -13.647083 -17.207888 15.428463 -6.779239 -7.546422 38.355317 -29.181085 33.776153 0.000000 -0.000001 -0.000000 0.000001 0.000000 -0.000001 1.019098 -1.599325 0.873749 -0.004332 -3.399447 0.363598 -0.116509 -3.107313 0.517954 -3.727421 -0.002484 -0.683563 -3.727439 -0.002484 -0.683564 0.000000 0.000001 -0.000000 -3.727393 -0.002496 -0.683562 -3.727491 -0.002478 -0.683565 0.000000 0.000001 -0.000000 0.000000 0.000001 0.000000 -0.087596 3.411969 -4.598579 36.070239 -29.254718 -53.441613 0.000065 -80.534071 0.000073 -13.803841 -3.053171 -10.111789 6.590536 -4.958666 16.122663 7.178840 21.567331 2.147322 0.000002 -0.000003 -0.000001 0.659512 4.932351 -26.024455 0.169792 1.401613 -13.813537 -0.000000 -0.000002 -0.000001 1.376922 6.461943 -24.994171 0.169872 1.401970 -13.817111 0.000000 0.000001 -0.000000 2.098720 8.644287 -21.209674 0.169788 1.401607 -13.813537 0.000000 -0.000002 -0.000000 2.123421 10.735861 -14.817561 0.167496 1.392237 -13.719351 0.000001 -0.000005 -0.000001 -0.000001 -0.000001 0.000001 -0.000001 -0.000001 0.000001 -0.000002 -0.000001 0.000002 -0.000002 -0.000002 -0.000001 -0.000002 -0.000003 -0.000001 -0.000002 -0.000002 -0.000001 -0.000004 -0.000001 -0.000002 0.552938 2.146241 13.889198 36.351250 32.916229 31.673073 -0.000215 102.444573 0.000216 -28.112838 -0.954738 11.594344 -11.615835 6.768536 1.222992 7.918231 -27.751665 -3.100788 0.000000 -0.000001 0.000001 1.309557 11.243906 39.995303 0.613125 -2.311665 29.705541 -0.000001 -0.000000 0.000001 -4.134207 0.511808 42.534259 0.701402 -2.459814 31.825929 0.000001 -0.000001 0.000002 -1.383344 -2.025829 37.806675 0.441689 -1.981423 25.130906 -0.000000 0.000001 0.000002 0.401760 -4.062269 22.443192 0.385038 -1.855932 23.439082 -0.000001 0.000002 -0.000001 -0.000001 -0.000000 -0.000000 -0.000001 -0.000000 -0.000001 -0.000001 -0.000001 -0.000000 0.000001 -0.000001 -0.000001 0.000001 -0.000001 -0.000000 0.000001 -0.000001 -0.000001 0.000001 -0.000001 -0.000001 0.000000 -0.000000 0.000000 0.000000 -0.000000 0.000000 0.000000 -0.000000 0.000000 0.000000 -0.000000 0.000000 0.000000 -0.000000 0.000000 0.000000 -0.000000 0.000000 0.000000 -0.000000 0.000000 0.000000 0.000000 -0.000000 0.000000 0.000000 -0.000000 
